<?xml version="1.0" encoding="UTF-8" standalone="no"?>
<!DOCTYPE svg PUBLIC "-//W3C//DTD SVG 1.1//EN"
 "http://www.w3.org/Graphics/SVG/1.1/DTD/svg11.dtd">
<!-- Generated by graphviz version 2.43.0 (0)
 -->
<!-- Title: counter Pages: 1 -->
<svg width="1194pt" height="306pt"
 viewBox="0.00 0.00 1193.53 306.00" xmlns="http://www.w3.org/2000/svg" xmlns:xlink="http://www.w3.org/1999/xlink">
<g id="graph0" class="graph" transform="scale(1 1) rotate(0) translate(4 302)">
<title>counter</title>
<polygon fill="white" stroke="transparent" points="-4,4 -4,-302 1189.53,-302 1189.53,4 -4,4"/>
<text text-anchor="middle" x="592.77" y="-7.8" font-family="Times,serif" font-size="14.00">counter</text>
<!-- n9 -->
<g id="node1" class="node">
<title>n9</title>
<polygon fill="none" stroke="black" points="654.42,-271.04 654.42,-285.96 622.58,-296.5 577.57,-296.5 545.74,-285.96 545.74,-271.04 577.57,-260.5 622.58,-260.5 654.42,-271.04"/>
<text text-anchor="middle" x="600.08" y="-274.8" font-family="Times,serif" font-size="14.00">overflow</text>
</g>
<!-- n10 -->
<g id="node2" class="node">
<title>n10</title>
<polygon fill="none" stroke="black" points="104.94,-204.04 104.94,-218.96 81.92,-229.5 49.37,-229.5 26.35,-218.96 26.35,-204.04 49.37,-193.5 81.92,-193.5 104.94,-204.04"/>
<text text-anchor="middle" x="65.64" y="-207.8" font-family="Times,serif" font-size="14.00">count</text>
</g>
<!-- c23 -->
<g id="node9" class="node">
<title>c23</title>
<polygon fill="none" stroke="black" points="373.43,-79 373.43,-148 482.43,-148 482.43,-79 373.43,-79"/>
<text text-anchor="middle" x="386.93" y="-132.8" font-family="Times,serif" font-size="14.00">A</text>
<polyline fill="none" stroke="black" points="373.43,-125 400.43,-125 "/>
<text text-anchor="middle" x="386.93" y="-109.8" font-family="Times,serif" font-size="14.00">B</text>
<polyline fill="none" stroke="black" points="373.43,-102 400.43,-102 "/>
<text text-anchor="middle" x="386.93" y="-86.8" font-family="Times,serif" font-size="14.00">S</text>
<polyline fill="none" stroke="black" points="400.43,-79 400.43,-148 "/>
<text text-anchor="middle" x="428.43" y="-117.3" font-family="Times,serif" font-size="14.00">$5</text>
<text text-anchor="middle" x="428.43" y="-102.3" font-family="Times,serif" font-size="14.00">$mux</text>
<polyline fill="none" stroke="black" points="456.43,-79 456.43,-148 "/>
<text text-anchor="middle" x="469.43" y="-109.8" font-family="Times,serif" font-size="14.00">Y</text>
</g>
<!-- n10&#45;&gt;c23 -->
<g id="edge5" class="edge">
<title>n10:e&#45;&gt;c23:w</title>
<path fill="none" stroke="black" stroke-width="3" d="M105.64,-211.5C205.15,-211.5 235.67,-214.61 326.29,-173.5 346.35,-164.4 346.46,-144.31 361.69,-138.26"/>
<polygon fill="black" stroke="black" stroke-width="3" points="362.67,-141.64 371.93,-136.5 361.48,-134.75 362.67,-141.64"/>
</g>
<!-- c24 -->
<g id="node10" class="node">
<title>c24</title>
<polygon fill="none" stroke="black" points="167.29,-259.5 167.29,-297.5 326.29,-297.5 326.29,-259.5 167.29,-259.5"/>
<text text-anchor="middle" x="180.29" y="-274.8" font-family="Times,serif" font-size="14.00">A</text>
<polyline fill="none" stroke="black" points="193.29,-259.5 193.29,-297.5 "/>
<text text-anchor="middle" x="246.79" y="-282.3" font-family="Times,serif" font-size="14.00">$4</text>
<text text-anchor="middle" x="246.79" y="-267.3" font-family="Times,serif" font-size="14.00">$reduce_and</text>
<polyline fill="none" stroke="black" points="300.29,-259.5 300.29,-297.5 "/>
<text text-anchor="middle" x="313.29" y="-274.8" font-family="Times,serif" font-size="14.00">Y</text>
</g>
<!-- n10&#45;&gt;c24 -->
<g id="edge6" class="edge">
<title>n10:e&#45;&gt;c24:w</title>
<path fill="none" stroke="black" stroke-width="3" d="M105.64,-211.5C142.31,-211.5 129.91,-266.53 157.38,-276.84"/>
<polygon fill="black" stroke="black" stroke-width="3" points="156.85,-280.3 167.29,-278.5 158,-273.4 156.85,-280.3"/>
</g>
<!-- c25 -->
<g id="node12" class="node">
<title>c25</title>
<polygon fill="none" stroke="black" points="194.29,-117.5 194.29,-163.5 299.29,-163.5 299.29,-117.5 194.29,-117.5"/>
<text text-anchor="middle" x="207.79" y="-148.3" font-family="Times,serif" font-size="14.00">A</text>
<polyline fill="none" stroke="black" points="194.29,-140.5 221.29,-140.5 "/>
<text text-anchor="middle" x="207.79" y="-125.3" font-family="Times,serif" font-size="14.00">B</text>
<polyline fill="none" stroke="black" points="221.29,-117.5 221.29,-163.5 "/>
<text text-anchor="middle" x="247.29" y="-144.3" font-family="Times,serif" font-size="14.00">$3</text>
<text text-anchor="middle" x="247.29" y="-129.3" font-family="Times,serif" font-size="14.00">$add</text>
<polyline fill="none" stroke="black" points="273.29,-117.5 273.29,-163.5 "/>
<text text-anchor="middle" x="286.29" y="-136.8" font-family="Times,serif" font-size="14.00">Y</text>
</g>
<!-- n10&#45;&gt;c25 -->
<g id="edge7" class="edge">
<title>n10:e&#45;&gt;c25:w</title>
<path fill="none" stroke="black" stroke-width="3" d="M105.64,-211.5C148.76,-211.5 146.69,-161.36 182.75,-153.52"/>
<polygon fill="black" stroke="black" stroke-width="3" points="183.2,-157 192.79,-152.5 182.48,-150.03 183.2,-157"/>
</g>
<!-- n11 -->
<g id="node3" class="node">
<title>n11</title>
<polygon fill="none" stroke="black" points="92.64,-69.04 92.64,-83.96 76.83,-94.5 54.46,-94.5 38.64,-83.96 38.64,-69.04 54.46,-58.5 76.83,-58.5 92.64,-69.04"/>
<text text-anchor="middle" x="65.64" y="-72.8" font-family="Times,serif" font-size="14.00">en</text>
</g>
<!-- x3 -->
<g id="node15" class="node">
<title>x3</title>
<path fill="none" stroke="black" d="M261.79,-97.5C261.79,-97.5 231.79,-97.5 231.79,-97.5 225.79,-97.5 219.79,-91.5 219.79,-85.5 219.79,-85.5 219.79,-73.5 219.79,-73.5 219.79,-67.5 225.79,-61.5 231.79,-61.5 231.79,-61.5 261.79,-61.5 261.79,-61.5 267.79,-61.5 273.79,-67.5 273.79,-73.5 273.79,-73.5 273.79,-85.5 273.79,-85.5 273.79,-91.5 267.79,-97.5 261.79,-97.5"/>
<text text-anchor="middle" x="246.79" y="-75.8" font-family="Times,serif" font-size="14.00">BUF</text>
</g>
<!-- n11&#45;&gt;x3 -->
<g id="edge8" class="edge">
<title>n11:e&#45;&gt;x3:w</title>
<path fill="none" stroke="black" d="M93.64,-76.5C145.69,-76.5 161.19,-79.13 208.53,-79.46"/>
<polygon fill="black" stroke="black" points="208.78,-82.97 218.79,-79.5 208.8,-75.97 208.78,-82.97"/>
</g>
<!-- n12 -->
<g id="node4" class="node">
<title>n12</title>
<polygon fill="none" stroke="black" points="465,-35.04 465,-49.96 443.29,-60.5 412.58,-60.5 390.86,-49.96 390.86,-35.04 412.58,-24.5 443.29,-24.5 465,-35.04"/>
<text text-anchor="middle" x="427.93" y="-38.8" font-family="Times,serif" font-size="14.00">rst_n</text>
</g>
<!-- c22 -->
<g id="node8" class="node">
<title>c22</title>
<polygon fill="none" stroke="black" points="545.58,-104 545.58,-173 654.58,-173 654.58,-104 545.58,-104"/>
<text text-anchor="middle" x="559.08" y="-157.8" font-family="Times,serif" font-size="14.00">A</text>
<polyline fill="none" stroke="black" points="545.58,-150 572.58,-150 "/>
<text text-anchor="middle" x="559.08" y="-134.8" font-family="Times,serif" font-size="14.00">B</text>
<polyline fill="none" stroke="black" points="545.58,-127 572.58,-127 "/>
<text text-anchor="middle" x="559.08" y="-111.8" font-family="Times,serif" font-size="14.00">S</text>
<polyline fill="none" stroke="black" points="572.58,-104 572.58,-173 "/>
<text text-anchor="middle" x="600.58" y="-142.3" font-family="Times,serif" font-size="14.00">$8</text>
<text text-anchor="middle" x="600.58" y="-127.3" font-family="Times,serif" font-size="14.00">$mux</text>
<polyline fill="none" stroke="black" points="628.58,-104 628.58,-173 "/>
<text text-anchor="middle" x="641.58" y="-134.8" font-family="Times,serif" font-size="14.00">Y</text>
</g>
<!-- n12&#45;&gt;c22 -->
<g id="edge9" class="edge">
<title>n12:e&#45;&gt;c22:w</title>
<path fill="none" stroke="black" d="M465.93,-42.5C509.75,-42.5 498.8,-104.54 534.06,-114.23"/>
<polygon fill="black" stroke="black" points="533.72,-117.72 544.08,-115.5 534.59,-110.77 533.72,-117.72"/>
</g>
<!-- c26 -->
<g id="node13" class="node">
<title>c26</title>
<polygon fill="none" stroke="black" points="529.58,-23.5 529.58,-61.5 670.58,-61.5 670.58,-23.5 529.58,-23.5"/>
<text text-anchor="middle" x="542.58" y="-38.8" font-family="Times,serif" font-size="14.00">A</text>
<polyline fill="none" stroke="black" points="555.58,-23.5 555.58,-61.5 "/>
<text text-anchor="middle" x="600.08" y="-46.3" font-family="Times,serif" font-size="14.00">$2</text>
<text text-anchor="middle" x="600.08" y="-31.3" font-family="Times,serif" font-size="14.00">$logic_not</text>
<polyline fill="none" stroke="black" points="644.58,-23.5 644.58,-61.5 "/>
<text text-anchor="middle" x="657.58" y="-38.8" font-family="Times,serif" font-size="14.00">Y</text>
</g>
<!-- n12&#45;&gt;c26 -->
<g id="edge10" class="edge">
<title>n12:e&#45;&gt;c26:w</title>
<path fill="none" stroke="black" d="M465.93,-42.5C490.46,-42.5 499.04,-42.5 519.33,-42.5"/>
<polygon fill="black" stroke="black" points="519.58,-46 529.58,-42.5 519.58,-39 519.58,-46"/>
</g>
<!-- n13 -->
<g id="node5" class="node">
<title>n13</title>
<polygon fill="none" stroke="black" points="760.58,-269.04 760.58,-283.96 744.76,-294.5 722.39,-294.5 706.58,-283.96 706.58,-269.04 722.39,-258.5 744.76,-258.5 760.58,-269.04"/>
<text text-anchor="middle" x="733.58" y="-272.8" font-family="Times,serif" font-size="14.00">clk</text>
</g>
<!-- c17 -->
<g id="node6" class="node">
<title>c17</title>
<polygon fill="none" stroke="black" points="806.93,-207.5 806.93,-253.5 925.93,-253.5 925.93,-207.5 806.93,-207.5"/>
<text text-anchor="middle" x="830.43" y="-238.3" font-family="Times,serif" font-size="14.00">CLK</text>
<polyline fill="none" stroke="black" points="806.93,-230.5 853.93,-230.5 "/>
<text text-anchor="middle" x="830.43" y="-215.3" font-family="Times,serif" font-size="14.00">D</text>
<polyline fill="none" stroke="black" points="853.93,-207.5 853.93,-253.5 "/>
<text text-anchor="middle" x="875.93" y="-234.3" font-family="Times,serif" font-size="14.00">$10</text>
<text text-anchor="middle" x="875.93" y="-219.3" font-family="Times,serif" font-size="14.00">$dff</text>
<polyline fill="none" stroke="black" points="897.93,-207.5 897.93,-253.5 "/>
<text text-anchor="middle" x="911.93" y="-226.8" font-family="Times,serif" font-size="14.00">Q</text>
</g>
<!-- n13&#45;&gt;c17 -->
<g id="edge11" class="edge">
<title>n13:e&#45;&gt;c17:w</title>
<path fill="none" stroke="black" d="M760.58,-276.5C781.49,-276.5 781.3,-252.74 795.29,-244.95"/>
<polygon fill="black" stroke="black" points="796.53,-248.25 805.43,-242.5 794.89,-241.44 796.53,-248.25"/>
</g>
<!-- c17&#45;&gt;n10 -->
<g id="edge4" class="edge">
<title>c17:e&#45;&gt;n10:w</title>
<path fill="none" stroke="black" stroke-width="3" d="M927.43,-230.5C937.89,-230.5 933.98,-246.77 926.43,-254 888.09,-290.75 859.96,-257.02 806.93,-254 760.96,-251.38 647.12,-230.5 601.08,-230.5 426.93,-230.5 426.93,-230.5 426.93,-230.5 382.46,-230.5 58.92,-260.11 26.64,-229.5 24.28,-227.26 22.35,-223.87 21.43,-220.63"/>
<polygon fill="black" stroke="black" stroke-width="3" points="24.63,-222.05 25.64,-211.5 18.28,-219.11 24.63,-222.05"/>
</g>
<!-- v0 -->
<g id="node7" class="node">
<title>v0</title>
<ellipse fill="none" stroke="black" cx="427.93" cy="-184.5" rx="65.79" ry="18"/>
<text text-anchor="middle" x="427.93" y="-180.8" font-family="Times,serif" font-size="14.00">8&#39;00000000</text>
</g>
<!-- v0&#45;&gt;c22 -->
<g id="edge20" class="edge">
<title>v0:e&#45;&gt;c22:w</title>
<path fill="none" stroke="black" stroke-width="3" d="M493.58,-184.5C514.39,-184.5 518.47,-168.13 534.06,-163.01"/>
<polygon fill="black" stroke="black" stroke-width="3" points="534.71,-166.45 544.08,-161.5 533.67,-159.53 534.71,-166.45"/>
</g>
<!-- n1 -->
<g id="node18" class="node">
<title>n1</title>
<ellipse fill="black" stroke="black" cx="733.58" cy="-154.5" rx="1.8" ry="1.8"/>
</g>
<!-- c22&#45;&gt;n1 -->
<g id="edge1" class="edge">
<title>c22:e&#45;&gt;n1:w</title>
<path fill="none" stroke="black" stroke-width="3" d="M656.08,-138.5C686.24,-138.5 694.91,-151.19 720.37,-153.97"/>
<polygon fill="black" stroke="black" stroke-width="3" points="720.41,-157.47 730.58,-154.5 720.77,-150.48 720.41,-157.47"/>
</g>
<!-- c23&#45;&gt;c22 -->
<g id="edge13" class="edge">
<title>c23:e&#45;&gt;c22:w</title>
<path fill="none" stroke="black" stroke-width="3" d="M483.93,-113.5C509.15,-113.5 514.11,-132.47 534.1,-137.36"/>
<polygon fill="black" stroke="black" stroke-width="3" points="533.74,-140.84 544.08,-138.5 534.54,-133.89 533.74,-140.84"/>
</g>
<!-- x2 -->
<g id="node14" class="node">
<title>x2</title>
<path fill="none" stroke="black" d="M442.93,-296.5C442.93,-296.5 412.93,-296.5 412.93,-296.5 406.93,-296.5 400.93,-290.5 400.93,-284.5 400.93,-284.5 400.93,-272.5 400.93,-272.5 400.93,-266.5 406.93,-260.5 412.93,-260.5 412.93,-260.5 442.93,-260.5 442.93,-260.5 448.93,-260.5 454.93,-266.5 454.93,-272.5 454.93,-272.5 454.93,-284.5 454.93,-284.5 454.93,-290.5 448.93,-296.5 442.93,-296.5"/>
<text text-anchor="middle" x="427.93" y="-274.8" font-family="Times,serif" font-size="14.00">BUF</text>
</g>
<!-- c24&#45;&gt;x2 -->
<g id="edge15" class="edge">
<title>c24:e&#45;&gt;x2:w</title>
<path fill="none" stroke="black" d="M326.29,-278.5C355.31,-278.5 365.03,-278.5 389.68,-278.5"/>
<polygon fill="black" stroke="black" points="389.93,-282 399.93,-278.5 389.93,-275 389.93,-282"/>
</g>
<!-- v1 -->
<g id="node11" class="node">
<title>v1</title>
<ellipse fill="none" stroke="black" cx="65.64" cy="-130.5" rx="65.79" ry="18"/>
<text text-anchor="middle" x="65.64" y="-126.8" font-family="Times,serif" font-size="14.00">8&#39;00000001</text>
</g>
<!-- v1&#45;&gt;c25 -->
<g id="edge21" class="edge">
<title>v1:e&#45;&gt;c25:w</title>
<path fill="none" stroke="black" stroke-width="3" d="M131.29,-130.5C154.9,-130.5 163.2,-129.01 182.62,-128.6"/>
<polygon fill="black" stroke="black" stroke-width="3" points="182.82,-132.1 192.79,-128.5 182.75,-125.1 182.82,-132.1"/>
</g>
<!-- c25&#45;&gt;c23 -->
<g id="edge16" class="edge">
<title>c25:e&#45;&gt;c23:w</title>
<path fill="none" stroke="black" stroke-width="3" d="M300.79,-140.5C330.91,-140.5 336.98,-119.08 361.84,-114.4"/>
<polygon fill="black" stroke="black" stroke-width="3" points="362.28,-117.87 371.93,-113.5 361.66,-110.9 362.28,-117.87"/>
</g>
<!-- x4 -->
<g id="node16" class="node">
<title>x4</title>
<path fill="none" stroke="black" d="M748.58,-60.5C748.58,-60.5 718.58,-60.5 718.58,-60.5 712.58,-60.5 706.58,-54.5 706.58,-48.5 706.58,-48.5 706.58,-36.5 706.58,-36.5 706.58,-30.5 712.58,-24.5 718.58,-24.5 718.58,-24.5 748.58,-24.5 748.58,-24.5 754.58,-24.5 760.58,-30.5 760.58,-36.5 760.58,-36.5 760.58,-48.5 760.58,-48.5 760.58,-54.5 754.58,-60.5 748.58,-60.5"/>
<text text-anchor="middle" x="733.58" y="-38.8" font-family="Times,serif" font-size="14.00">BUF</text>
</g>
<!-- c26&#45;&gt;x4 -->
<g id="edge17" class="edge">
<title>c26:e&#45;&gt;x4:w</title>
<path fill="none" stroke="black" d="M670.58,-42.5C682.58,-42.5 687.83,-42.5 696.45,-42.5"/>
<polygon fill="black" stroke="black" points="696.58,-46 706.58,-42.5 696.58,-39 696.58,-46"/>
</g>
<!-- x2&#45;&gt;n9 -->
<g id="edge19" class="edge">
<title>x2:e&#45;&gt;n9:w</title>
<path fill="none" stroke="black" d="M455.93,-278.5C491.99,-278.5 503.44,-278.5 535.07,-278.5"/>
<polygon fill="black" stroke="black" points="535.08,-282 545.08,-278.5 535.08,-275 535.08,-282"/>
</g>
<!-- x3&#45;&gt;c23 -->
<g id="edge14" class="edge">
<title>x3:e&#45;&gt;c23:w</title>
<path fill="none" stroke="black" d="M274.79,-79.5C314.68,-79.5 326.58,-88.77 361.87,-90.29"/>
<polygon fill="black" stroke="black" points="361.86,-93.79 371.93,-90.5 362.01,-86.79 361.86,-93.79"/>
</g>
<!-- n2 -->
<g id="node19" class="node">
<title>n2</title>
<polygon fill="none" stroke="black" points="866.43,-60.5 796.72,-42.5 866.43,-24.5 936.14,-42.5 866.43,-60.5"/>
<text text-anchor="middle" x="866.43" y="-38.8" font-family="Times,serif" font-size="14.00">$9_CMP</text>
</g>
<!-- x4&#45;&gt;n2 -->
<g id="edge12" class="edge">
<title>x4:e&#45;&gt;n2:w</title>
<path fill="none" stroke="black" d="M760.58,-42.5C772.58,-42.5 777.83,-42.5 786.45,-42.5"/>
<polygon fill="black" stroke="black" points="786.58,-46 796.58,-42.5 786.58,-39 786.58,-46"/>
</g>
<!-- x5 -->
<g id="node17" class="node">
<title>x5</title>
<path fill="none" stroke="black" d="M881.43,-172.5C881.43,-172.5 851.43,-172.5 851.43,-172.5 845.43,-172.5 839.43,-166.5 839.43,-160.5 839.43,-160.5 839.43,-148.5 839.43,-148.5 839.43,-142.5 845.43,-136.5 851.43,-136.5 851.43,-136.5 881.43,-136.5 881.43,-136.5 887.43,-136.5 893.43,-142.5 893.43,-148.5 893.43,-148.5 893.43,-160.5 893.43,-160.5 893.43,-166.5 887.43,-172.5 881.43,-172.5"/>
<text text-anchor="middle" x="866.43" y="-150.8" font-family="Times,serif" font-size="14.00">BUF</text>
</g>
<!-- n8 -->
<g id="node20" class="node">
<title>n8</title>
<polygon fill="none" stroke="black" points="1078.91,-172.5 972.17,-154.5 1078.91,-136.5 1185.66,-154.5 1078.91,-172.5"/>
<text text-anchor="middle" x="1078.91" y="-150.8" font-family="Times,serif" font-size="14.00">$0╲count[7:0]</text>
</g>
<!-- x5&#45;&gt;n8 -->
<g id="edge18" class="edge">
<title>x5:e&#45;&gt;n8:w</title>
<path fill="none" stroke="black" stroke-width="3" d="M894.43,-154.5C925.39,-154.5 935.57,-154.5 962.15,-154.5"/>
<polygon fill="black" stroke="black" stroke-width="3" points="962.29,-158 972.29,-154.5 962.29,-151 962.29,-158"/>
</g>
<!-- n1&#45;&gt;c17 -->
<g id="edge2" class="edge">
<title>n1:e&#45;&gt;c17:w</title>
<path fill="none" stroke="black" stroke-width="3" d="M736.58,-154.5C774.6,-154.5 765.84,-207.52 795.46,-217.04"/>
<polygon fill="black" stroke="black" stroke-width="3" points="795.03,-220.52 805.43,-218.5 796.04,-213.59 795.03,-220.52"/>
</g>
<!-- n1&#45;&gt;x5 -->
<g id="edge3" class="edge">
<title>n1:e&#45;&gt;x5:w</title>
<path fill="none" stroke="black" stroke-width="3" d="M736.58,-154.5C778.31,-154.5 791.19,-154.5 828.41,-154.5"/>
<polygon fill="black" stroke="black" stroke-width="3" points="828.43,-158 838.43,-154.5 828.43,-151 828.43,-158"/>
</g>
</g>
</svg>
